<svg width="502" height="494" viewBox="0 0 502 494" fill="none" xmlns="http://www.w3.org/2000/svg">
<path d="M314 96.5L425.007 5.05351C426.619 3.72595 428.642 3 430.73 3H452.5" stroke="black" stroke-linecap="round" stroke-linejoin="round" stroke-dasharray="2 2"/>
<circle cx="453" cy="3" r="2.5" fill="white" stroke="#111827"/>
<path d="M123.5 204L58 138.5H4" stroke="black" stroke-dasharray="2 2"/>
<circle cx="3" cy="138" r="2.5" fill="white" stroke="#111827"/>
<path d="M328 401L458.717 401L498 401" stroke="black" stroke-linecap="round" stroke-linejoin="round" stroke-dasharray="2 2"/>
<circle cx="498.5" cy="401" r="2.5" fill="white" stroke="#111827"/>
<path d="M339.075 173.925C327.881 90.0376 299.539 20 256 20C212.474 20 184.131 90.0255 172.925 173.925C89.0376 185.119 19 213.461 19 257C19 300.526 89.0376 328.869 172.925 340.075C184.119 423.95 212.461 494 256 494C299.526 494 327.869 423.962 339.075 340.075C422.962 328.869 493 300.539 493 257C493 213.461 422.95 185.119 339.075 173.925ZM170.196 315.625C89.8502 304.019 43.0008 277.459 43.0008 256.988C43.0008 236.516 89.8623 209.957 170.196 198.35C168.426 217.694 167.504 237.438 167.504 256.988C167.504 276.538 168.426 296.306 170.196 315.625ZM256.012 43.9886C276.484 43.9886 303.043 90.8502 314.65 171.184C295.318 169.414 275.562 168.492 256.012 168.492C236.462 168.492 216.706 169.414 197.375 171.184C208.981 90.838 235.541 43.9886 256.012 43.9886ZM341.816 315.625C337.862 316.208 321.635 318.099 317.536 318.512C317.136 322.623 315.22 338.838 314.65 342.792C303.043 423.138 276.484 469.999 256.012 469.999C235.541 469.999 208.981 423.138 197.375 342.792C196.805 338.838 194.888 322.611 194.488 318.512C192.621 299.471 191.493 279.012 191.493 256.988C191.493 234.976 192.621 214.517 194.488 195.452C213.529 193.584 233.988 192.456 256.012 192.456C278.024 192.456 298.483 193.584 317.536 195.452C321.647 195.852 337.862 197.768 341.816 198.338C422.162 209.944 469.036 236.516 469.036 256.976C469.023 277.435 422.162 304.019 341.816 315.625Z" fill="#141414"/>
</svg>
